<?xml version="1.0" encoding="utf-8"?>
<svg xmlns="http://www.w3.org/2000/svg" xmlns:xlink="http://www.w3.org/1999/xlink" style="margin: auto; background: rgb(241, 242, 243); display: block; shape-rendering: auto;" width="194px" height="194px" viewBox="0 0 100 100" preserveAspectRatio="xMidYMid">
<g transform="rotate(0 50 50)">
  <rect x="48.5" y="32.5" rx="1.5" ry="4.32" width="3" height="9" fill="#60c7a9">
    <animate attributeName="opacity" values="1;0" keyTimes="0;1" dur="4.545454545454545s" begin="-4.195804195804195s" repeatCount="indefinite"></animate>
  </rect>
</g><g transform="rotate(27.692307692307693 50 50)">
  <rect x="48.5" y="32.5" rx="1.5" ry="4.32" width="3" height="9" fill="#60c7a9">
    <animate attributeName="opacity" values="1;0" keyTimes="0;1" dur="4.545454545454545s" begin="-3.846153846153846s" repeatCount="indefinite"></animate>
  </rect>
</g><g transform="rotate(55.38461538461539 50 50)">
  <rect x="48.5" y="32.5" rx="1.5" ry="4.32" width="3" height="9" fill="#60c7a9">
    <animate attributeName="opacity" values="1;0" keyTimes="0;1" dur="4.545454545454545s" begin="-3.4965034965034962s" repeatCount="indefinite"></animate>
  </rect>
</g><g transform="rotate(83.07692307692308 50 50)">
  <rect x="48.5" y="32.5" rx="1.5" ry="4.32" width="3" height="9" fill="#60c7a9">
    <animate attributeName="opacity" values="1;0" keyTimes="0;1" dur="4.545454545454545s" begin="-3.1468531468531467s" repeatCount="indefinite"></animate>
  </rect>
</g><g transform="rotate(110.76923076923077 50 50)">
  <rect x="48.5" y="32.5" rx="1.5" ry="4.32" width="3" height="9" fill="#60c7a9">
    <animate attributeName="opacity" values="1;0" keyTimes="0;1" dur="4.545454545454545s" begin="-2.797202797202797s" repeatCount="indefinite"></animate>
  </rect>
</g><g transform="rotate(138.46153846153845 50 50)">
  <rect x="48.5" y="32.5" rx="1.5" ry="4.32" width="3" height="9" fill="#60c7a9">
    <animate attributeName="opacity" values="1;0" keyTimes="0;1" dur="4.545454545454545s" begin="-2.4475524475524475s" repeatCount="indefinite"></animate>
  </rect>
</g><g transform="rotate(166.15384615384616 50 50)">
  <rect x="48.5" y="32.5" rx="1.5" ry="4.32" width="3" height="9" fill="#60c7a9">
    <animate attributeName="opacity" values="1;0" keyTimes="0;1" dur="4.545454545454545s" begin="-2.0979020979020975s" repeatCount="indefinite"></animate>
  </rect>
</g><g transform="rotate(193.84615384615384 50 50)">
  <rect x="48.5" y="32.5" rx="1.5" ry="4.32" width="3" height="9" fill="#60c7a9">
    <animate attributeName="opacity" values="1;0" keyTimes="0;1" dur="4.545454545454545s" begin="-1.7482517482517481s" repeatCount="indefinite"></animate>
  </rect>
</g><g transform="rotate(221.53846153846155 50 50)">
  <rect x="48.5" y="32.5" rx="1.5" ry="4.32" width="3" height="9" fill="#60c7a9">
    <animate attributeName="opacity" values="1;0" keyTimes="0;1" dur="4.545454545454545s" begin="-1.3986013986013985s" repeatCount="indefinite"></animate>
  </rect>
</g><g transform="rotate(249.23076923076923 50 50)">
  <rect x="48.5" y="32.5" rx="1.5" ry="4.32" width="3" height="9" fill="#60c7a9">
    <animate attributeName="opacity" values="1;0" keyTimes="0;1" dur="4.545454545454545s" begin="-1.0489510489510487s" repeatCount="indefinite"></animate>
  </rect>
</g><g transform="rotate(276.9230769230769 50 50)">
  <rect x="48.5" y="32.5" rx="1.5" ry="4.32" width="3" height="9" fill="#60c7a9">
    <animate attributeName="opacity" values="1;0" keyTimes="0;1" dur="4.545454545454545s" begin="-0.6993006993006993s" repeatCount="indefinite"></animate>
  </rect>
</g><g transform="rotate(304.61538461538464 50 50)">
  <rect x="48.5" y="32.5" rx="1.5" ry="4.32" width="3" height="9" fill="#60c7a9">
    <animate attributeName="opacity" values="1;0" keyTimes="0;1" dur="4.545454545454545s" begin="-0.34965034965034963s" repeatCount="indefinite"></animate>
  </rect>
</g><g transform="rotate(332.3076923076923 50 50)">
  <rect x="48.5" y="32.5" rx="1.5" ry="4.32" width="3" height="9" fill="#60c7a9">
    <animate attributeName="opacity" values="1;0" keyTimes="0;1" dur="4.545454545454545s" begin="0s" repeatCount="indefinite"></animate>
  </rect>
</g>
<!-- [ldio] generated by https://loading.io/ --></svg>